# xmcd
#
# Track frame offsets:
#	150
#	10086
#	25122
#	38910
#	52355
#	65289
#	77740
#	93012
#	108445
#	119161
#
# Disc length: 1747 seconds
#
# Revision: 0
# Processed by: cddbd v1.5.2PL0 Copyright (c) Steve Scherf et al.
# Submitted via: dBpowerAMP V4.0
#
DISCID=7d06d10a
DTITLE=Original Artists - 1974 Country Classics
DYEAR=1999
DGENRE=Country
TTITLE0=Lynn Anderson - What A Man, My Man Is
TTITLE1=Barbara Fairchild - Baby Doll
TTITLE2=Donna Fargo - You Can't Be A Beacon (If Your Light Don't Shine
TTITLE3=Don Gibson - One Day At A Time
TTITLE4=Lois Johnson - Loving You Will Never Grow Old
TTITLE5=La Costa (Tucker) - Get On My Love Train
TTITLE6=Melba Montgomery - No Charge
TTITLE7=Cal Smith - Country Bumpkin
TTITLE8=Susan Raye - Watcha Gonna Do With A Dog Like That
TTITLE9=David Wills - There's A Song On The Jukebox
EXTD=Country Classics - Hits of 1974
EXTT0=
EXTT1=
EXTT2=
EXTT3=
EXTT4=
EXTT5=
EXTT6=
EXTT7=
EXTT8=
EXTT9=
PLAYORDER=
